<svg width="97" height="84" viewBox="0 0 97 84" fill="none" xmlns="http://www.w3.org/2000/svg">
<g clip-path="url(#clip0_415_19221)">
<path fill-rule="evenodd" clip-rule="evenodd" d="M27.7959 77L40.4073 80.2502V76L41.4368 75H48.6431V80V83.5H40.922L31.3991 79.5L27.7959 77Z" fill="#CDBDB2"/>
<path fill-rule="evenodd" clip-rule="evenodd" d="M68.9752 77L56.6214 80.2502V76L55.592 75H48.3856V80V83.5H56.1067L65.6292 79.5L68.9752 77Z" fill="#CDBDB2"/>
<path fill-rule="evenodd" clip-rule="evenodd" d="M41.4368 67.7502L40.4073 76L41.694 75H55.0772L56.6214 76L55.592 67.7502L53.533 66.5L43.2382 66.7502L41.4368 67.7502Z" fill="#393939"/>
<path fill-rule="evenodd" clip-rule="evenodd" d="M34.4875 12L40.6644 26L43.4957 66.7502H53.5329L56.6214 26L62.2835 12H34.4875Z" fill="#F89C35"/>
<path fill-rule="evenodd" clip-rule="evenodd" d="M7.46394 42.7502L0.257568 63L18.2735 62H29.8549V53.2502L29.3402 35.2502L26.7665 37.2502L7.46394 42.7502Z" fill="#F89D35"/>
<path fill-rule="evenodd" clip-rule="evenodd" d="M21.1044 45L42.2087 45.5L39.8926 56L29.855 53.5L21.1044 45Z" fill="#D87C30"/>
<path fill-rule="evenodd" clip-rule="evenodd" d="M21.1044 45.2502L29.855 53.2502V61.2502L21.1044 45.2502Z" fill="#EA8D3A"/>
<path fill-rule="evenodd" clip-rule="evenodd" d="M29.855 53.5L40.1498 56L43.4958 66.7502L41.1793 68L29.855 61.5V53.5Z" fill="#F89D35"/>
<path fill-rule="evenodd" clip-rule="evenodd" d="M29.8549 61.5L27.7959 77L41.4368 67.7502L29.8549 61.5Z" fill="#EB8F35"/>
<path fill-rule="evenodd" clip-rule="evenodd" d="M42.2087 45.5L43.4958 66.7502L39.635 55.8751L42.2087 45.5Z" fill="#EA8E3A"/>
<path fill-rule="evenodd" clip-rule="evenodd" d="M18.0159 61.7502L29.8549 61.5L27.7959 77L18.0159 61.7502Z" fill="#D87C30"/>
<path fill-rule="evenodd" clip-rule="evenodd" d="M5.91971 83.7502L27.796 77L18.0159 61.7502L0.257568 63L5.91971 83.7502Z" fill="#EB8F35"/>
<path fill-rule="evenodd" clip-rule="evenodd" d="M40.6645 26L29.5978 35L21.1044 45L42.2087 45.7502L40.6645 26Z" fill="#E8821E"/>
<path fill-rule="evenodd" clip-rule="evenodd" d="M27.7959 77L41.4368 67.7502L40.4073 75.7502V80.2502L31.1419 78.5L27.7959 77Z" fill="#DFCEC3"/>
<path fill-rule="evenodd" clip-rule="evenodd" d="M68.9752 77L55.592 67.7502L56.6214 75.7502V80.2502L65.8868 78.5L68.9752 77Z" fill="#DFCEC3"/>
<path fill-rule="evenodd" clip-rule="evenodd" d="M36.5465 50L39.3778 55.7502L29.3401 53.2502L36.5465 50Z" fill="#393939"/>
<path fill-rule="evenodd" clip-rule="evenodd" d="M5.66211 0.250244L40.6645 26L34.7452 12L5.66211 0.250244Z" fill="#E88F35"/>
<path fill-rule="evenodd" clip-rule="evenodd" d="M5.66208 0.25L1.02942 14L3.60312 29L1.80153 30L4.37523 32.25L2.31627 34L5.14734 36.5L3.34575 38L7.46368 43L26.7664 37.25C36.2034 29.9167 40.836 26.1667 40.6644 26C40.4929 25.8333 28.8254 17.25 5.66208 0.25Z" fill="#8E5A30"/>
<path fill-rule="evenodd" clip-rule="evenodd" d="M89.3072 42.7502L96.5135 63L78.4976 62H66.9162V53.2502L67.4309 35.2502L70.0046 37.2502L89.3072 42.7502Z" fill="#F89D35"/>
<path fill-rule="evenodd" clip-rule="evenodd" d="M75.6667 45L54.5624 45.5L56.8785 56L66.9162 53.5L75.6667 45Z" fill="#D87C30"/>
<path fill-rule="evenodd" clip-rule="evenodd" d="M75.6667 45.2502L66.9162 53.2502V61.2502L75.6667 45.2502Z" fill="#EA8D3A"/>
<path fill-rule="evenodd" clip-rule="evenodd" d="M66.9161 53.5L56.6213 56L53.2753 66.7502L55.5918 68L66.9161 61.5V53.5Z" fill="#F89D35"/>
<path fill-rule="evenodd" clip-rule="evenodd" d="M66.9161 61.5L68.9751 77L55.5918 68L66.9161 61.5Z" fill="#EB8F35"/>
<path fill-rule="evenodd" clip-rule="evenodd" d="M54.5624 45.5L53.2753 66.7502L57.1361 55.8751L54.5624 45.5Z" fill="#EA8E3A"/>
<path fill-rule="evenodd" clip-rule="evenodd" d="M78.7552 61.7502L66.9162 61.5L68.9752 77L78.7552 61.7502Z" fill="#D87C30"/>
<path fill-rule="evenodd" clip-rule="evenodd" d="M90.8514 83.7502L68.9752 77L78.7552 61.7502L96.5135 63L90.8514 83.7502Z" fill="#EB8F35"/>
<path fill-rule="evenodd" clip-rule="evenodd" d="M56.1066 26L67.1733 35L75.6667 45L54.5624 45.7502L56.1066 26Z" fill="#E8821E"/>
<path fill-rule="evenodd" clip-rule="evenodd" d="M60.2246 50L57.3933 55.7502L67.431 53.2502L60.2246 50Z" fill="#393939"/>
<path fill-rule="evenodd" clip-rule="evenodd" d="M91.109 0.250244L56.1067 26L62.0259 12L91.109 0.250244Z" fill="#E88F35"/>
<path fill-rule="evenodd" clip-rule="evenodd" d="M91.109 0.25L95.7417 14L93.168 29L94.9696 30L92.3959 32.25L94.4548 34L91.6238 36.5L93.4254 38L89.3074 43L70.0047 37.25C60.5678 29.9167 55.9351 26.1667 56.1067 26C56.2783 25.8333 67.9457 17.25 91.109 0.25Z" fill="#8E5A30"/>
</g>
<defs>
<clipPath id="clip0_415_19221">
<rect width="97" height="84" fill="white"/>
</clipPath>
</defs>
</svg>
