 <svg
                id="loading-bar"
                width="50" height="56" viewBox="0 0 50 56" fill="none" xmlns="http://www.w3.org/2000/svg">
                <path
                    id="loading-bar-left"
                    d="M46.8791 0.457549C46.1641 0.139254 45.49 0 44.6321 0C43.7742 0 43.1001 0.139254 42.3852 0.457549C41.8133 0.716163 41.0166 1.31297 40.5877 1.8103C40.1383 2.32753 39.6889 3.10337 39.5255 3.68028C39.3008 4.47602 39.2191 9.21066 39.1169 28.0497C39.0148 48.4803 39.0352 51.5439 39.3008 52.4192C39.4642 52.9563 39.9544 53.8117 40.3834 54.2892C40.8124 54.7666 41.5273 55.3435 41.9767 55.5822C42.6099 55.9005 43.1614 56 44.4279 56C45.8169 56 46.205 55.9204 46.9812 55.4828C47.4919 55.2043 48.2068 54.6075 48.5745 54.1897C48.9421 53.7719 49.3711 52.9762 49.5345 52.4192C49.7592 51.6036 49.8409 47.0281 49.943 28.0497C50.0452 7.61918 50.0248 4.5556 49.7592 3.68028C49.5958 3.14316 49.1056 2.28774 48.6766 1.8103C48.2476 1.31297 47.451 0.716163 46.8791 0.457549Z" fill="url(#paint0_linear_477_6876)" />
                <path
                    id="loading-bar-middle"
                    d="M26.8791 5.457549C46.1641 5.139254 45.49 5 44.6321 5C43.7742 0 43.1001 0.139254 42.3852 0.457549C41.8133 0.716163 41.0166 1.31297 40.5877 1.8103C40.1383 2.32753 39.6889 3.10337 39.5255 3.68028C39.3008 4.47602 39.2191 9.21066 39.1169 28.0497C39.0148 48.4803 39.0352 51.5439 39.3008 52.4192C39.4642 52.9563 39.9544 53.8117 40.3834 54.2892C40.8124 54.7666 41.5273 55.3435 41.9767 55.5822C42.6099 55.9005 43.1614 56 44.4279 56C45.8169 56 46.205 55.9204 46.9812 55.4828C47.4919 55.2043 48.2068 54.6075 48.5745 54.1897C48.9421 53.7719 49.3711 52.9762 49.5345 52.4192C49.7592 51.6036 49.8409 47.0281 49.943 28.0497C50.0452 7.61918 50.0248 4.5556 49.7592 3.68028C49.5958 3.14316 49.1056 2.28774 48.6766 1.8103C48.2476 1.31297 47.451 0.716163 46.8791 0.457549Z" fill="url(#paint0_linear_477_6876)" fill="url(#paint1_linear_477_6876)" />
                <path
                    id="loading-bar-right"
                    d="M6.84291 22.957C6.27097 22.7979 5.55604 22.6785 5.20878 22.6984C4.86153 22.6984 4.18745 22.8377 3.67679 22.9769C3.16612 23.1361 2.34906 23.5936 1.85882 24.0114C1.34816 24.4291 0.735358 25.205 0.469812 25.762C0.142986 26.4782 0 27.1147 0 28.0497C0 28.9847 0.142986 29.6213 0.469812 30.3375C0.735358 30.8945 1.34816 31.6703 1.85882 32.0881C2.34906 32.5059 3.20698 32.9634 3.77892 33.1425C4.33044 33.3016 5.02494 33.421 5.31092 33.421C5.59689 33.421 6.27097 33.3016 6.84291 33.1425C7.39443 32.9634 8.27277 32.5059 8.76301 32.0881C9.27368 31.6703 9.88648 30.8945 10.152 30.3375C10.4788 29.6213 10.6218 28.9847 10.6218 28.0497C10.6218 27.1147 10.4788 26.4782 10.152 25.762C9.88648 25.205 9.27368 24.4291 8.76301 24.0114C8.27277 23.5936 7.39443 23.1361 6.84291 22.957Z" fill="url(#paint2_linear_477_6876)" />
                <defs>
                    <linearGradient id="paint0_linear_477_6876" x1="25" y1="0" x2="25" y2="56" gradientUnits="userSpaceOnUse">
                        <stop stop-color="#BBC9FF" />
                        <stop offset="1" stop-color="#5297FF" />
                    </linearGradient>
                    <linearGradient id="paint1_linear_477_6876" x1="25" y1="0" x2="25" y2="56" gradientUnits="userSpaceOnUse">
                        <stop stop-color="#BBC9FF" />
                        <stop offset="1" stop-color="#5297FF" />
                    </linearGradient>
                    <linearGradient id="paint2_linear_477_6876" x1="25" y1="0" x2="25" y2="56" gradientUnits="userSpaceOnUse">
                        <stop stop-color="#BBC9FF" />
                        <stop offset="1" stop-color="#5297FF" />
                    </linearGradient>
                </defs>
            </svg>