<svg width="146" height="146" viewBox="0 0 146 146" fill="none" xmlns="http://www.w3.org/2000/svg">
<path d="M145.385 72.6618C145.385 99.6885 130.621 123.273 108.664 135.747C98.0939 141.847 85.8194 145.256 72.7607 145.256C32.6299 145.256 0.102539 112.742 0.102539 72.6278C0.102539 70.8896 0.170722 69.1855 0.307106 67.5155C2.89839 29.8213 34.3347 -6.10352e-05 72.7266 -6.10352e-05C112.857 0.0340205 145.385 32.5819 145.385 72.6618Z" fill="url(#paint0_radial_363_5199)"/>
<path d="M141.805 74.2297C141.805 100.677 127.382 123.75 105.97 135.951C95.673 141.916 83.7054 145.256 70.9194 145.256C31.7775 145.256 0.0683594 113.458 0.0683594 74.2297C0.0683594 72.5257 0.136543 70.8556 0.272926 69.2538C2.79602 32.3775 33.4822 3.20374 70.9194 3.20374C110.096 3.20374 141.805 35.0359 141.805 74.2297Z" fill="url(#paint1_radial_363_5199)"/>
<path d="M0.272926 71.4693C0.136543 73.0711 0.0683594 74.6729 0.0683594 76.3089C0.0683594 114.412 30.55 145.29 68.1918 145.29C80.4663 145.29 91.9566 142.018 101.878 136.258C122.472 124.398 136.315 102.006 136.315 76.3429C136.315 74.9797 135.395 72.9348 135.36 71.4011C135.326 70.6172 135.395 69.7993 135.395 69.0154C135.361 67.2772 134.986 65.6413 135.02 63.9032C135.02 63.017 135.088 62.1309 135.054 61.2789C135.02 60.495 134.679 59.8134 134.644 59.0295C134.576 57.3595 134.031 55.7577 134.372 54.0877C134.61 52.963 135.088 51.9405 133.929 51.1908C133.178 50.7136 132.94 50.9181 132.394 49.9979C131.985 49.2822 131.542 48.805 130.996 48.1916C130.178 47.3395 129.121 46.4534 128.541 45.431C128.439 45.2265 127.928 44.6471 127.893 44.4767C127.859 44.0336 128.371 43.6587 128.132 43.2497C127.178 43.0112 126.189 43.386 125.234 43.1816C124.109 42.943 123.904 41.8183 123.734 40.7617C123.632 40.0801 123.836 39.7052 124.007 39.0577C124.143 38.4783 124.075 37.8989 124.075 37.2855C124.075 37.5922 124.075 37.8989 124.075 38.2056C124.075 37.1491 124.348 35.6155 124.007 34.6271C123.768 33.9114 122.745 32.7867 122.2 32.2755C121.211 31.3553 120.427 31.3893 119.233 31.0826C117.699 30.6736 117.972 28.9695 117.29 27.7767C116.983 27.1973 116.608 26.9247 116.165 26.4816C115.108 25.4251 114.255 24.0959 113.369 22.903C111.732 20.6877 110.436 20.7559 107.879 20.6196C105.595 20.4832 102.731 19.5971 100.685 18.6428C97.6506 17.2114 94.6502 15.3369 91.2065 15.9504C89.1607 16.3253 87.2855 17.5181 85.2397 17.6204C83.3644 17.7226 81.9664 16.8706 80.3639 16.0185C77.0225 14.2122 74.0221 11.9287 70.1693 11.2812C66.9643 10.77 63.3161 10.3951 60.077 10.9063C56.4628 11.4516 53.1897 12.7808 49.7801 14.0077C45.8932 15.4051 42.9609 18.3361 39.6195 20.6196C36.7896 22.5622 33.2436 22.9712 30.55 25.0161C29.5271 25.7999 28.1633 26.9928 27.5154 28.1175C27.2086 28.6628 27.0722 29.3103 26.7995 29.8556C26.3221 30.7759 25.572 31.5257 24.8901 32.2755C19.0597 38.751 9.13782 41.0685 4.84175 48.6346C4.12574 49.8957 2.35274 56.6779 1.94359 58.0411C1.12529 60.6654 7.05799 62.574 6.34197 65.2323C6.1374 66.0162 5.55775 66.6979 5.1486 67.4136C4.77355 68.1293 4.43264 69.0835 3.81892 69.6288C3.06881 70.3105 1.02303 70.515 0.272926 71.4693Z" fill="url(#paint2_radial_363_5199)"/>
<path opacity="0.2" d="M129.7 95.667C129.121 92.5996 127.211 90.0776 125.507 87.5556C124.211 85.647 122.745 83.8407 121.449 81.9662C120.46 80.5689 119.506 78.967 118.312 77.7401C116.983 76.3427 114.971 74.3319 115.994 72.1848C116.539 71.026 117.903 70.3785 118.824 69.5605C119.813 68.6403 120.631 67.5156 121.449 66.4591C122.404 65.2321 122.472 64.1415 122.949 62.7101C123.461 61.1423 123.802 60.0517 123.427 58.4158C123.086 57.0866 123.529 55.9619 122.608 54.7691C121.961 53.8489 120.904 53.0991 119.915 52.5879C117.937 51.4972 116.403 50.577 115.005 48.8048C114.255 47.8505 113.914 46.7258 112.755 46.1464C111.63 45.6011 110.368 45.8738 109.141 45.7375C107.538 45.5671 104.538 45.2603 103.378 43.9312C101.333 41.6477 103.344 37.7964 100.446 36.1264C98.6391 35.104 96.5933 34.0816 94.4453 34.0816C91.1721 34.0134 87.6602 35.104 84.5234 35.8879C81.5571 36.6718 78.6931 38.4781 78.0794 41.6818C77.8748 42.636 78.2157 43.5563 78.3862 44.5105C78.659 45.7034 78.7954 46.7258 79.3409 47.8165C81.6594 52.5197 87.2853 54.4283 91.6495 56.7117C95.1614 58.5522 96.116 62.3693 94.7863 65.9478C93.968 68.129 91.6495 69.7309 90.1152 71.3668C89.0582 72.4915 87.8989 73.5481 86.876 74.6728C85.9554 75.7293 85.3076 77.0244 84.5234 78.1832C82.8186 80.7734 81.898 83.7385 79.9546 86.2264C78.1134 88.544 76.3064 90.8274 73.5105 91.9521C70.9874 93.0086 68.2598 92.5656 65.6003 92.9745C63.2477 93.3154 60.7587 93.3835 58.3379 93.2813C57.0081 93.2131 55.8148 92.8723 54.451 92.9064C53.019 92.9064 51.7574 92.8041 50.3595 92.5315C47.5295 91.918 44.495 90.8274 42.0401 89.3278C40.4035 88.3394 39.0396 86.8398 38.5282 84.9654C38.0509 83.159 38.2895 80.1599 39.1419 78.5581C40.8467 75.3885 45.211 73.8889 48.6205 74.6046C51.8937 75.2521 54.9624 77.6719 57.8946 79.1374C60.895 80.637 63.6228 81.1142 66.3845 79.0352C67.4756 78.1832 67.8848 77.4674 68.6349 76.3427C69.1122 75.6611 69.8623 75.2521 70.5101 74.775C72.7945 73.0368 75.0107 71.2986 76.9541 69.1515C78.7612 67.1066 80.432 65.1981 80.3297 62.3011C80.2274 59.8813 79.2386 58.1432 77.7725 56.3028C76.4428 54.5987 75.3176 52.9287 74.3629 50.9179C73.5105 49.1116 71.8739 48.055 69.9304 47.612C68.1574 47.2371 65.9753 47.0326 64.3046 47.9869C63.7591 48.2936 63.4182 48.7366 63.0431 49.2479C62.7703 49.6569 62.6681 49.8954 62.2248 50.3385C61.4065 51.1905 60.6905 52.3152 59.9404 53.2013C58.9175 54.4624 57.7242 55.4507 56.4626 56.4391C54.5874 58.0068 52.0983 58.7225 49.6775 57.8023C47.8704 57.1548 45.8588 56.5413 44.495 55.144C42.4492 53.0991 42.9607 49.2819 42.6879 46.6236C42.3129 43.3858 42.1083 40.0118 40.8808 36.9104C40.4376 35.7175 39.5511 34.0134 38.4259 33.2977C37.5394 32.7183 36.3802 32.7524 35.3573 32.9228C33.5503 33.2296 31.9478 34.4565 30.4817 35.4448C28.4359 36.8081 27.754 38.6485 26.7311 40.7615C24.549 45.1921 22.9805 49.7591 20.9689 54.2919C19.8437 56.814 19.1618 59.4724 19.6391 62.3011C20.2187 65.4025 19.8096 71.1623 15.4113 71.2987C10.5015 71.435 9.81953 65.6752 8.25113 62.3011C8.01245 61.7899 6.95547 59.0634 6.00079 60.2562C5.83031 60.4607 5.89851 61.824 5.79622 62.1989C5.59165 62.9828 5.353 63.6303 5.18252 64.4142C4.80747 66.2546 3.00039 67.686 1.02283 67.6519C0.71597 67.6519 0.443237 67.5838 0.204566 67.5156C0.0681833 69.1856 0 70.8897 0 72.6278C0 112.742 32.5274 145.256 72.6581 145.256C85.7509 145.256 97.9913 141.813 108.561 135.747C107.436 134.588 106.072 133.634 104.81 132.952C102.662 131.828 100.139 131.487 97.889 130.635C96.0137 129.885 93.8998 129.612 91.9564 128.999C90.3539 128.453 88.5127 127.874 87.1489 126.92C86.3647 126.374 86.0919 125.352 85.5463 124.602C85.1372 124.057 84.8985 123.409 84.4553 122.83C83.2278 121.194 81.3525 119.285 81.3525 117.07C81.3525 114.957 83.2619 113.355 85.2735 113.287C87.6602 113.151 90.1833 113.969 92.4337 114.548C94.2066 114.957 95.9115 115.741 97.6163 116.355C98.9119 116.798 100.242 117.207 101.367 117.922C103.14 119.013 104.981 120.035 107.095 120.103C109.345 120.206 110.743 119.592 112.652 118.604C115.278 117.275 116.608 114.412 118.346 112.094C119.165 111.038 119.744 109.811 120.665 108.857C121.245 108.277 121.927 107.834 122.472 107.289C123.563 106.266 124.518 105.38 125.779 104.596C126.393 104.221 127.28 103.983 127.757 103.506C128.2 103.097 128.541 102.211 128.78 101.699C129.769 99.8931 130.007 97.6437 129.7 95.667ZM65.3616 59.0634C66.214 59.1997 67.3051 59.745 67.8848 60.3926C68.6008 61.1424 69.419 63.0509 69.2486 64.0734C69.1122 64.9254 68.8734 66.2887 68.1233 66.834C67.1346 67.5497 65.498 67.686 64.3388 67.8905C63.6227 68.0268 62.9749 68.1972 62.2248 68.0268C61.8157 67.9246 60.9633 67.8905 60.5882 67.7542C58.4743 66.9022 58.9516 63.7666 58.8493 62.1307L58.2697 61.858C60.2132 60.0176 62.5998 58.5522 65.3616 59.0634ZM28.3336 78.2854C27.2425 78.1491 26.4583 77.9786 25.8787 77.0243C25.1627 75.8996 25.1286 74.6387 25.1627 73.3436C25.1968 70.8215 25.9469 68.1972 26.8675 65.8456C27.9245 63.1872 29.22 61.0742 30.8225 58.6544C29.1518 59.6768 30.9931 57.666 32.8001 56.9503C33.9935 56.4731 35.1868 55.996 36.5166 56.1664C39.2783 56.5413 42.2106 59.4383 43.3357 61.8922C44.2904 63.9371 43.9153 66.1864 43.6085 68.3336C43.6085 68.4017 43.6085 68.4358 43.5744 68.4699C44.4268 67.6178 45.4837 66.5954 46.7112 66.6636C48.2796 66.7658 49.473 68.4017 49.5412 69.8672C49.6094 71.5032 48.3478 72.5597 46.7794 72.6278C45.6884 72.6619 44.2904 72.4233 43.779 71.4009C43.3017 70.5489 43.438 69.4241 43.5744 68.5039C43.4721 68.6062 43.4039 68.6744 43.3016 68.7766C40.7444 71.2986 37.9145 73.4799 35.3232 76.0019C33.5161 77.7742 30.7885 78.558 28.3336 78.2854ZM67.4755 121.296C66.8618 123.103 65.7367 124.977 64.0319 125.965C61.7475 127.261 58.4061 127.363 55.9512 127.056C53.019 126.681 50.189 126.068 47.325 125.352C43.9836 124.534 41.1195 123.069 38.8692 120.444C35.5278 116.491 33.9594 110.254 34.1981 105.176C34.3004 103.744 34.6754 102.177 35.6642 101.052C36.2097 100.472 36.7893 99.9613 37.369 99.416C37.6758 99.1092 38.0509 98.4276 36.7553 99.1433C37.369 97.9164 38.0509 96.7235 38.7669 95.5647C39.2102 95.3262 39.6534 95.1217 40.1307 94.9513C41.4946 94.5423 42.9606 94.2696 44.3586 94.0311C45.8247 93.7584 47.2567 93.7584 48.7228 93.7584C50.3594 93.7584 52.0643 93.6221 53.6668 94.0311C55.0988 94.406 56.3945 95.1217 57.656 95.7351C58.9176 96.3827 60.2473 96.7235 61.4747 97.4392C62.0884 97.8141 62.5317 98.3594 63.0431 98.8706C63.725 99.5523 64.3728 100.132 64.8502 100.95C65.839 102.722 66.4186 104.46 66.9641 106.403C68.4302 111.208 69.0439 116.457 67.4755 121.296ZM110.402 93.0086C109.55 94.44 107.947 95.4966 106.345 95.8715C105.015 96.2123 103.378 95.7692 102.083 95.4284C101.128 95.1558 100.276 94.6104 99.3551 94.3378C98.3322 93.997 97.5481 93.7925 96.6616 93.2813C94.9568 92.327 93.1156 91.7135 91.9222 90.0776C90.763 88.4758 90.4221 86.0901 89.9447 84.1815C89.5015 82.4093 89.0923 80.8415 89.6378 79.0352C90.1833 77.2289 91.2404 75.7293 92.2632 74.1274C92.8088 73.2754 93.5929 72.5597 94.1385 71.6736C95.0931 70.3444 95.8773 68.7766 96.6956 67.4134C98.2299 66.4591 99.8324 65.3685 102.424 65.4366C103.753 65.4366 104.879 65.7434 105.902 66.5613C107.572 67.8905 109.072 69.1515 109.72 71.2646C110.027 72.253 110.3 73.2754 110.573 74.2637C110.88 75.2862 110.811 76.2746 110.914 77.297C111.016 78.2513 111.255 79.1715 111.357 80.1258C111.493 81.1823 111.221 82.1366 111.152 83.1932C111.084 84.0793 111.05 85.0676 111.118 85.9537C111.152 86.7376 111.459 87.4874 111.459 88.2713C111.493 89.7709 111.152 91.8158 110.402 93.0086Z" fill="#190078"/>
<path opacity="0.2" d="M61.9511 37.2173C60.485 34.0818 58.6098 31.0826 58.8144 27.47C58.9507 25.391 59.7008 23.0394 61.9511 22.5622C63.7582 22.1873 65.8039 23.2098 67.3723 23.9936C68.1906 24.4026 69.0431 24.948 69.6568 25.6296C70.3728 26.3794 70.6114 27.3677 70.8842 28.3561C71.6343 30.8099 73.0664 35.6155 70.0659 37.1832C67.0655 38.751 63.9287 38.1034 61.9511 37.2173Z" fill="#190078"/>
<path opacity="0.2" d="M53.4631 23.3461C54.5542 23.8573 55.6794 24.1981 56.8727 24.3685C56.7704 23.8573 57.2137 23.755 57.3841 23.3461C57.4864 23.1075 57.5206 22.4599 57.4524 22.1873C57.2819 21.6761 56.8045 21.4034 56.3272 21.3353C55.9521 21.3012 55.543 21.4375 55.1679 21.3694C54.8952 21.3012 54.9292 21.0967 54.6224 21.0967C53.8041 21.1649 53.395 22.3918 53.4631 23.0393V23.3461Z" fill="#190078"/>
<path opacity="0.2" d="M96.7294 25.6295C98.3319 24.8456 101.776 22.5962 103.855 23.6868C105.492 24.5047 106.788 26.0384 107.981 27.4017C108.867 28.4241 109.788 30.3668 109.277 31.73C108.731 33.1274 106.992 34.1498 105.492 34.1839C104.537 34.1839 103.583 33.809 102.662 33.5704C101.537 33.2637 100.344 33.1274 99.2866 32.6843C98.2978 32.2753 97.684 31.6278 96.8998 30.9462C96.4907 30.5713 95.9452 30.3327 95.6383 29.8555C95.1269 29.0717 95.3314 28.1174 95.6383 27.2994C95.9793 26.4815 96.7976 24.7774 96.7294 25.6295Z" fill="#190078"/>
<path opacity="0.2" d="M67.0328 96.5873C67.6125 99.1775 67.7147 104.29 71.5675 104.256C73.5451 104.222 74.3634 103.029 74.0566 101.188C73.7156 99.2116 72.8631 97.0645 70.7833 96.3488C70.3741 96.2124 69.4536 95.9398 69.0103 95.9739C68.3284 96.0761 67.6466 97.0645 67.0328 97.4053V96.5873V96.5873Z" fill="#190078"/>
<defs>
<radialGradient id="paint0_radial_363_5199" cx="0" cy="0" r="1" gradientUnits="userSpaceOnUse" gradientTransform="translate(88.7628 32.9691) scale(84.323 84.2878)">
<stop stop-color="#C0D6FA"/>
<stop offset="0.1678" stop-color="#B5C8F1"/>
<stop offset="0.4856" stop-color="#98A3D8"/>
<stop offset="0.9166" stop-color="#6A67B1"/>
<stop offset="1" stop-color="#605BA9"/>
</radialGradient>
<radialGradient id="paint1_radial_363_5199" cx="0" cy="0" r="1" gradientUnits="userSpaceOnUse" gradientTransform="translate(86.5885 35.4021) scale(82.2599 82.4605)">
<stop stop-color="#9095C7"/>
<stop offset="0.1957" stop-color="#8289BD"/>
<stop offset="0.5662" stop-color="#5D68A1"/>
<stop offset="1" stop-color="#2A3B7C"/>
</radialGradient>
<radialGradient id="paint2_radial_363_5199" cx="0" cy="0" r="1" gradientUnits="userSpaceOnUse" gradientTransform="translate(83.2505 41.1134) scale(77.6055 78.5591)">
<stop offset="0.2814" stop-color="#4A5190"/>
<stop offset="0.4564" stop-color="#474C90"/>
<stop offset="0.6588" stop-color="#3D3E8E"/>
<stop offset="0.8742" stop-color="#2C278C"/>
<stop offset="1" stop-color="#20168B"/>
</radialGradient>
</defs>
</svg>
